<?xml version="1.0" standalone="no"?>
<!DOCTYPE svg PUBLIC "-//W3C//DTD SVG 20010904//EN"
 "http://www.w3.org/TR/2001/REC-SVG-20010904/DTD/svg10.dtd">
<svg version="1.0" xmlns="http://www.w3.org/2000/svg"
 width="1635.000000pt" height="1622.000000pt" viewBox="0 0 1635.000000 1622.000000"
 preserveAspectRatio="xMidYMid meet">
<metadata>
Created by potrace 1.16, written by Peter Selinger 2001-2019
</metadata>
<g transform="translate(0.000000,1622.000000) scale(0.100000,-0.100000)"
fill="#000000" stroke="none">
<path d="M7263 15702 c-568 -284 -1033 -520 -1033 -524 0 -5 10 -8 23 -8 42 0
313 -59 455 -100 79 -22 206 -63 282 -91 l138 -50 589 294 588 295 495 -249
c408 -204 503 -248 538 -248 35 -1 42 -4 42 -21 0 -17 314 -177 1840 -940
1389 -694 1849 -920 1875 -920 27 0 35 -4 35 -18 0 -13 388 -211 1605 -820
883 -441 1607 -802 1610 -802 3 0 5 159 5 353 l0 352 -645 323 c-355 177 -656
322 -670 322 l-25 0 0 1085 0 1085 -940 0 -940 0 0 -600 c0 -330 -2 -600 -5
-600 -3 0 -1085 540 -2405 1200 -1320 660 -2406 1200 -2412 1199 -7 0 -478
-233 -1045 -517z"/>
<path d="M5231 15004 c-1612 -176 -2928 -1354 -3269 -2929 -61 -279 -82 -490
-82 -806 0 -599 114 -1107 369 -1634 189 -390 419 -713 726 -1020 525 -526
1172 -875 1900 -1024 124 -26 139 -31 135 -48 -2 -10 -5 -1707 -7 -3770 l-3
-3753 315 0 315 0 0 3749 0 3748 178 6 c97 3 233 13 302 22 1564 205 2826
1349 3180 2882 17 71 30 132 30 136 0 14 277 -24 460 -64 499 -108 971 -335
1385 -665 142 -113 407 -378 519 -519 315 -397 534 -837 657 -1320 33 -131 73
-358 84 -472 4 -40 11 -73 16 -73 5 0 9 -1525 9 -3715 l0 -3715 340 0 341 0
-4 3762 -3 3763 -22 150 c-94 655 -297 1202 -640 1729 -396 610 -948 1103
-1598 1429 -410 205 -876 344 -1326 394 l-158 17 0 123 c0 224 -40 526 -105
788 -334 1349 -1392 2408 -2740 2740 -314 78 -562 105 -922 104 -142 -1 -314
-7 -382 -15z m789 -639 c709 -95 1339 -409 1831 -911 243 -249 416 -490 568
-794 163 -326 256 -632 307 -1005 25 -182 25 -588 0 -770 -79 -582 -301 -1108
-656 -1555 -107 -135 -365 -393 -500 -500 -447 -355 -973 -577 -1555 -656
-182 -25 -588 -25 -770 0 -582 79 -1108 301 -1555 656 -135 107 -393 365 -500
500 -355 447 -577 973 -656 1555 -25 182 -25 588 0 770 79 582 301 1108 656
1555 107 135 365 393 500 500 482 382 1052 609 1680 670 132 12 512 4 650 -15z"/>
<path d="M3919 13403 c-463 -359 -802 -881 -950 -1460 -21 -85 -39 -162 -39
-172 0 -11 41 -52 103 -104 910 -759 1547 -1805 1811 -2979 5 -23 15 -30 59
-42 120 -35 441 -86 534 -86 l23 0 0 722 0 723 -126 126 c-132 133 -149 161
-133 224 5 17 22 44 39 60 27 26 39 30 85 30 l55 0 100 -100 c77 -77 101 -108
107 -135 l6 -35 14 42 c10 30 40 66 107 131 96 93 135 113 185 97 36 -11 79
-54 91 -90 19 -59 1 -89 -135 -225 l-125 -125 0 -724 0 -724 83 7 c195 16 411
58 602 117 l102 31 51 208 c154 621 406 1196 752 1716 213 320 405 551 714
858 l240 240 -18 85 c-80 398 -266 798 -525 1131 -124 159 -378 406 -520 504
l-39 27 -783 -422 c-431 -232 -788 -422 -794 -422 -5 0 -355 192 -777 427
-422 234 -771 426 -777 426 -5 0 -60 -39 -122 -87z m939 -1338 c56 -17 146
-87 166 -129 43 -90 26 -218 -39 -293 -127 -149 -363 -113 -444 67 -11 25 -21
60 -21 78 l0 32 -255 0 c-140 0 -255 4 -255 9 0 4 23 31 51 59 89 89 275 168
454 191 86 11 285 3 343 -14z m1957 -4 c149 -40 292 -120 346 -194 l30 -42
-258 -5 -258 -5 -7 -48 c-24 -170 -214 -268 -374 -193 -126 59 -185 216 -132
355 24 65 119 129 218 148 99 19 336 10 435 -16z"/>
<path d="M1068 12604 l-1068 -534 0 -350 c0 -193 2 -350 5 -350 3 0 410 202
905 450 l899 450 11 42 c49 189 178 524 281 731 27 53 46 97 42 96 -5 0 -488
-241 -1075 -535z"/>
<path d="M11150 7136 c-655 -295 -1183 -710 -1612 -1266 -393 -509 -681 -1170
-788 -1806 -55 -332 -53 -231 -57 -2206 l-4 -1828 346 0 345 0 0 1867 c-1
1345 2 1868 10 1873 6 4 17 49 25 101 123 816 558 1590 1189 2114 186 155 398
298 572 387 l84 43 0 383 c0 210 -3 382 -7 381 -5 0 -51 -19 -103 -43z"/>
</g>
</svg>
